<?xml version="1.0" encoding="UTF-8" standalone="no"?>
<!DOCTYPE svg PUBLIC "-//W3C//DTD SVG 1.1//EN" "http://www.w3.org/Graphics/SVG/1.1/DTD/svg11.dtd">
<svg version="1.1" xmlns="http://www.w3.org/2000/svg" xmlns:xlink="http://www.w3.org/1999/xlink" preserveAspectRatio="xMidYMid meet" viewBox="0 0 640 640" width="640" height="640"><defs><path d="" id="a3HIOMOVf"></path><path d="M296.84 259.77C296.84 318.45 247.79 366.09 187.37 366.09C126.95 366.09 77.89 318.45 77.89 259.77C77.89 201.09 126.95 153.46 187.37 153.46C247.79 153.46 296.84 201.09 296.84 259.77Z" id="b3GimxyMeU"></path><path d="M342.11 322.93C342.11 381.61 293.05 429.24 232.63 429.24C172.21 429.24 123.16 381.61 123.16 322.93C123.16 264.25 172.21 216.61 232.63 216.61C293.05 216.61 342.11 264.25 342.11 322.93Z" id="a1qAcWqBjd"></path><path d="M451.58 193.68C451.58 252.36 402.53 300 342.11 300C281.69 300 232.63 252.36 232.63 193.68C232.63 135.01 281.69 87.37 342.11 87.37C402.53 87.37 451.58 135.01 451.58 193.68Z" id="aeFKmKS3h"></path><path d="M240 313.46C240 372.13 289.05 419.77 349.47 419.77C409.89 419.77 458.95 372.13 458.95 313.46C458.95 254.78 409.89 207.14 349.47 207.14C289.05 207.14 240 254.78 240 313.46Z" id="a5SNZZhGIT"></path><path d="M328.42 162.93C328.42 221.61 279.37 269.24 218.95 269.24C158.53 269.24 109.47 221.61 109.47 162.93C109.47 104.25 158.53 56.61 218.95 56.61C279.37 56.61 328.42 104.25 328.42 162.93Z" id="aUoVHzQJi"></path><path d="M165.26 357.67C165.26 384.97 143.57 407.14 116.84 407.14C90.12 407.14 68.42 384.97 68.42 357.67C68.42 330.36 90.12 308.19 116.84 308.19C143.57 308.19 165.26 330.36 165.26 357.67Z" id="b8uiigLB8"></path><path d="M276.84 390.3C276.84 417.6 255.15 439.77 228.42 439.77C201.7 439.77 180 417.6 180 390.3C180 362.99 201.7 340.82 228.42 340.82C255.15 340.82 276.84 362.99 276.84 390.3Z" id="b5C31QbdQC"></path><path d="M471.58 347.14C471.58 374.44 449.88 396.61 423.16 396.61C396.43 396.61 374.74 374.44 374.74 347.14C374.74 319.83 396.43 297.67 423.16 297.67C449.88 297.67 471.58 319.83 471.58 347.14Z" id="d18GYIHuz0"></path><path d="M368.42 399.77C368.42 427.08 346.72 449.24 320 449.24C293.28 449.24 271.58 427.08 271.58 399.77C271.58 372.47 293.28 350.3 320 350.3C346.72 350.3 368.42 372.47 368.42 399.77Z" id="ag1irgl6i"></path><path d="M160 189.24C160 216.55 138.3 238.72 111.58 238.72C84.85 238.72 63.16 216.55 63.16 189.24C63.16 161.94 84.85 139.77 111.58 139.77C138.3 139.77 160 161.94 160 189.24Z" id="ckw0GLdiH"></path><path d="M133.68 270.53C133.68 297.83 111.99 320 85.26 320C58.54 320 36.84 297.83 36.84 270.53C36.84 243.22 58.54 221.05 85.26 221.05C111.99 221.05 133.68 243.22 133.68 270.53Z" id="c3kJoVdNvU"></path><path d="M246.32 64.21C246.32 91.52 224.62 113.68 197.89 113.68C171.17 113.68 149.47 91.52 149.47 64.21C149.47 36.91 171.17 14.74 197.89 14.74C224.62 14.74 246.32 36.91 246.32 64.21Z" id="b5vUvY3lF"></path><path d="M281.05 403.46C281.05 456.03 238.6 498.72 186.32 498.72C134.03 498.72 91.58 456.03 91.58 403.46C91.58 350.88 134.03 308.19 186.32 308.19C238.6 308.19 281.05 350.88 281.05 403.46Z" id="ezSUfM1pI"></path><path d="M393.68 120.3C393.68 172.87 351.23 215.56 298.95 215.56C246.66 215.56 204.21 172.87 204.21 120.3C204.21 67.72 246.66 25.03 298.95 25.03C351.23 25.03 393.68 67.72 393.68 120.3Z" id="a9nf3mSPVq"></path><path d="M402.11 409.77C402.11 445.5 368.38 474.51 326.84 474.51C285.3 474.51 251.58 445.5 251.58 409.77C251.58 374.04 285.3 345.03 326.84 345.03C368.38 345.03 402.11 374.04 402.11 409.77Z" id="g1e5J1A9Ve"></path><path d="M498.42 228.72C498.42 264.45 464.7 293.46 423.16 293.46C381.62 293.46 347.89 264.45 347.89 228.72C347.89 192.99 381.62 163.98 423.16 163.98C464.7 163.98 498.42 192.99 498.42 228.72Z" id="buWre8z1W"></path></defs><g><g><g><g><g><use xlink:href="#a3HIOMOVf" opacity="1" fill="#04ccfc" fill-opacity="1"></use><g><use xlink:href="#a3HIOMOVf" opacity="1" fill-opacity="0" stroke="#000000" stroke-width="1" stroke-opacity="1"></use></g></g><g><use xlink:href="#b3GimxyMeU" opacity="1" fill="#e7471f" fill-opacity="1"></use></g><g><use xlink:href="#a1qAcWqBjd" opacity="1" fill="#e7471f" fill-opacity="1"></use></g><g><use xlink:href="#aeFKmKS3h" opacity="1" fill="#e7471f" fill-opacity="1"></use></g><g><use xlink:href="#a5SNZZhGIT" opacity="1" fill="#e7471f" fill-opacity="1"></use></g><g><use xlink:href="#aUoVHzQJi" opacity="1" fill="#e7471f" fill-opacity="1"></use></g></g><g><use xlink:href="#b8uiigLB8" opacity="1" fill="#e7471f" fill-opacity="1"></use></g><g><use xlink:href="#b5C31QbdQC" opacity="1" fill="#e7471f" fill-opacity="1"></use></g><g><use xlink:href="#d18GYIHuz0" opacity="1" fill="#e7471f" fill-opacity="1"></use></g><g><use xlink:href="#ag1irgl6i" opacity="1" fill="#e7471f" fill-opacity="1"></use></g><g><use xlink:href="#ckw0GLdiH" opacity="1" fill="#e7471f" fill-opacity="1"></use></g><g><use xlink:href="#c3kJoVdNvU" opacity="1" fill="#e7471f" fill-opacity="1"></use></g><g><use xlink:href="#b5vUvY3lF" opacity="1" fill="#e7471f" fill-opacity="1"></use></g><g><use xlink:href="#ezSUfM1pI" opacity="1" fill="#e7471f" fill-opacity="1"></use></g><g><use xlink:href="#a9nf3mSPVq" opacity="1" fill="#e7471f" fill-opacity="1"></use></g><g><use xlink:href="#g1e5J1A9Ve" opacity="1" fill="#e7471f" fill-opacity="1"></use></g><g><use xlink:href="#buWre8z1W" opacity="1" fill="#e7471f" fill-opacity="1"></use></g></g></g></g></svg>